<svg width="33" height="33" viewBox="0 0 33 33" fill="none" xmlns="http://www.w3.org/2000/svg">
<path d="M11 23.375L16.5 28.875L22 23.375" stroke="white" stroke-width="1.4" stroke-linecap="round" stroke-linejoin="round"/>
<path d="M16.5 16.5V28.875" stroke="white" stroke-width="1.4" stroke-linecap="round" stroke-linejoin="round"/>
<path d="M28.7096 24.8738C29.9051 24.0332 30.8015 22.8335 31.2689 21.4489C31.7363 20.0642 31.7503 18.5667 31.3089 17.1735C30.8675 15.7804 29.9937 14.5642 28.8142 13.7013C27.6348 12.8384 26.211 12.3739 24.7496 12.375H23.0171C22.6036 10.7634 21.8298 9.2665 20.754 7.99714C19.6783 6.72778 18.3286 5.71901 16.8065 5.04677C15.2845 4.37452 13.6298 4.05632 11.967 4.11612C10.3042 4.17591 8.67659 4.61215 7.20677 5.39199C5.73695 6.17183 4.46319 7.27495 3.48139 8.61829C2.49959 9.96164 1.83533 11.5102 1.53862 13.1474C1.2419 14.7847 1.32047 16.4678 1.76841 18.0703C2.21634 19.6728 3.02196 21.1527 4.12463 22.3988" stroke="white" stroke-width="1.4" stroke-linecap="round" stroke-linejoin="round"/>
</svg>
